#!OML:ASF H:\Dans Jumps\Project 1\Capture day 1\Session 1\subject.ASF
:FULLY-SPECIFIED
:DEGREES
310
root 1.41776 15.6679 8.29727 -12.0216 -0.782932 1.91891
lowerback 8.01214 0.284641 0.664605
upperback 3.50788 0.47348 3.06073
thorax -0.885818 0.222428 2.74388
lowerneck -8.76434 0.209037 -2.21351
upperneck 28.4209 1.34009 -2.09007
head 10.5389 0.153727 -0.208868
rclavicle 3.27995e-015 9.54166e-015
rhumerus -24.145 -29.0822 -75.9614
rradius 20.5759
rwrist 46.8617
rhand -24.4654 -28.5363
rfingers 7.12502
rthumb 2.02788 -58.5064
lclavicle 3.27995e-015 9.54166e-015
lhumerus -24.7249 -0.0154707 79.7797
lradius 22.4316
lwrist 14.748
lhand -26.8199 -9.28939
lfingers 7.12502
lthumb -0.246094 20.6902
rfemur -31.0858 1.38382 15.6664
rtibia 55.0446
rfoot -9.73345 -0.0972287
rtoes 5.37068
lfemur -25.4697 7.62382 -21.5435
ltibia 53.9415
lfoot -13.2211 5.14719
ltoes -12.4693
311
root 1.42187 15.5018 8.44728 -13.1905 -1.21783 2.25128
lowerback 8.9247 0.464085 0.431407
upperback 3.94797 0.701712 3.04955
thorax -0.945823 0.332158 2.84178
lowerneck -8.77572 0.269952 -2.22215
upperneck 27.8335 1.38364 -1.98781
head 10.3212 0.193893 -0.163962
rclavicle 1.71452e-015 2.38542e-014
rhumerus -23.03 -29.7729 -76.4067
rradius 20.2445
rwrist 48.0433
rhand -24.4981 -28.7167
rfingers 7.12502
rthumb 1.99631 -58.6872
lclavicle 1.71452e-015 2.38542e-014
lhumerus -23.4499 1.97234 79.7983
lradius 21.433
lwrist 13.4509
lhand -27.7028 -9.94607
lfingers 7.12502
lthumb -1.09884 20.0308
rfemur -30.9115 2.34831 15.4013
rtibia 57.5796
rfoot -11.2187 -0.813356
rtoes 3.91709
lfemur -25.1229 7.9779 -21.6459
ltibia 56.5719
lfoot -14.3824 6.70805
ltoes -14.228
312
root 1.42978 15.3796 8.59528 -14.2148 -1.53047 2.454
lowerback 9.65233 0.536849 0.330375
upperback 4.27291 0.795217 3.04012
thorax -1.01407 0.376051 2.87773
lowerneck -8.5293 0.35241 -2.24419
upperneck 27.2624 1.42583 -1.79185
head 10.0605 0.243688 -0.085528
rclavicle -4.27387e-015 1.27222e-014
rhumerus -22.117 -29.6366 -77.0658
rradius 20.1268
rwrist 48.6568
rhand -24.4049 -28.537
rfingers 7.12502
rthumb 2.0863 -58.5065
lclavicle -4.27387e-015 1.27222e-014
lhumerus -22.6712 3.34461 80.0064
lradius 20.8063
lwrist 12.8304
lhand -28.2707 -10.589
lfingers 7.12502
lthumb -1.6474 19.3844
rfemur -30.325 2.74109 15.2888
rtibia 59.3737
rfoot -12.6608 -1.28692
rtoes 2.77818
lfemur -24.4879 8.28271 -21.6698
ltibia 58.5189
lfoot -15.3211 8.2055
ltoes -16.0954
313
root 1.44186 15.2932 8.73887 -14.9273 -1.76884 2.41418
lowerback 10.0766 0.503396 0.494462
upperback 4.44748 0.768994 3.04703
thorax -1.06197 0.363574 2.79381
lowerneck -8.23997 0.455152 -2.21726
upperneck 26.9343 1.492 -1.59086
head 9.88235 0.305824 -0.0130376
rclavicle -3.8763e-015 7.95139e-015
rhumerus -21.3458 -28.659 -77.9587
rradius 20.2188
rwrist 48.659
rhand -24.2648 -28.0981
rfingers 7.12502
rthumb 2.22163 -58.0663
lclavicle -3.8763e-015 7.95139e-015
lhumerus -22.2819 3.81709 80.4271
lradius 20.5751
lwrist 13.058
lhand -28.393 -10.9917
lfingers 7.12502
lthumb -1.76546 18.9807
rfemur -29.7376 2.68708 15.4219
rtibia 60.6975
rfoot -13.9557 -1.60121
rtoes 1.83868
lfemur -23.9143 8.50598 -21.4882
ltibia 60.0367
lfoot -16.1272 9.45258
ltoes -17.5565
314
root 1.45682 15.2325 8.8757 -15.1582 -1.96478 2.147
lowerback 10.0855 0.395708 0.917113
upperback 4.43676 0.665096 3.06994
thorax -1.06881 0.315993 2.59022
lowerneck -8.02662 0.564213 -2.08838
upperneck 26.9105 1.58481 -1.48593
head 9.83127 0.374363 0.0105425
rclavicle -2.48481e-015 9.54166e-015
rhumerus -20.6812 -26.9893 -79.0099
rradius 20.4946
rwrist 48.1581
rhand -24.0964 -27.5713
rfingers 7.12502
rthumb 2.38431 -57.5377
lclavicle -2.48481e-015 9.54166e-015
lhumerus -22.1604 3.32833 81.0688
lradius 20.7089
lwrist 14.0123
lhand -27.9911 -10.9901
lfingers 7.12502
lthumb -1.37731 18.9852
rfemur -29.522 2.3753 15.7574
rtibia 61.761
rfoot -15.0618 -1.7998
rtoes 1.1511
lfemur -23.7379 8.58971 -21.142
ltibia 61.3126
lfoot -16.8927 10.4389
ltoes -18.4287
315
root 1.4721 15.1804 9.00542 -14.9426 -2.12151 1.77412
lowerback 9.72965 0.256503 1.45125
upperback 4.28305 0.522692 3.0998
thorax -1.02331 0.250725 2.33556
lowerneck -7.93761 0.670377 -1.8826
upperneck 27.1277 1.69627 -1.48092
head 9.89329 0.443954 -0.0116409
rclavicle -8.94531e-015 -3.02153e-014
rhumerus -20.0791 -24.7977 -80.128
rradius 20.9442
rwrist 47.2918
rhand -23.947 -27.039
rfingers 7.12502
rthumb 2.52857 -57.0038
lclavicle -8.94531e-015 -3.02153e-014
lhumerus -22.1827 2.0273 81.9117
lradius 21.1443
lwrist 15.3674
lhand -27.1039 -10.5357
lfingers 7.12502
lthumb -0.520407 19.4434
rfemur -29.7656 2.01729 16.1629
rtibia 62.7186
rfoot -16.0197 -1.9651
rtoes 0.716735
lfemur -24.0283 8.54084 -20.7726
ltibia 62.4646
lfoot -17.5606 11.3082
ltoes -19.1084
316
root 1.48542 15.1419 9.12445 -14.348 -2.24238 1.40895
lowerback 9.0996 0.121143 1.93557
upperback 4.0163 0.371191 3.13299
thorax -0.946171 0.180244 2.11249
lowerneck -7.9395 0.766653 -1.65272
upperneck 27.4513 1.81134 -1.53813
head 10.0133 0.508883 -0.0589656
rclavicle -1.2921e-014 -4.77083e-015
rhumerus -19.5411 -22.2553 -81.2235
rradius 21.564
rwrist 46.1672
rhand -23.8273 -26.6217
rfingers 7.12502
rthumb 2.64415 -56.5851
lclavicle -1.2921e-014 -4.77083e-015
lhumerus -22.3023 0.201765 82.8956
lradius 21.8036
lwrist 16.69
lhand -25.9146 -9.80822
lfingers 7.12502
lthumb 0.628197 20.1706
rfemur -30.4073 1.69741 16.5192
rtibia 63.5606
rfoot -16.8599 -2.03285
rtoes 0.696143
lfemur -24.7116 8.40296 -20.4827
ltibia 63.4709
lfoot -18.1376 12.0378
ltoes -19.496
317
root 1.49582 15.1193 9.23178 -13.5446 -2.33132 1.14868
lowerback 8.3657 0.0137782 2.25351
upperback 3.69603 0.235858 3.15593
thorax -0.869047 0.11579 1.96919
lowerneck -7.95904 0.848696 -1.44564
upperneck 27.7118 1.91 -1.59769
head 10.1145 0.564586 -0.104943
rclavicle -8.49804e-015 2.8625e-014
rhumerus -19.0577 -19.6844 -82.2036
rradius 22.3007
rwrist 44.9595
rhand -23.7821 -26.3277
rfingers 7.12502
rthumb 2.68776 -56.2905
lclavicle -8.49804e-015 2.8625e-014
lhumerus -22.481 -1.85868 83.9521
lradius 22.5972
lwrist 17.5886
lhand -24.6816 -9.05441
lfingers 7.12502
lthumb 1.81908 20.9176
rfemur -31.2425 1.41393 16.7534
rtibia 64.2593
rfoot -17.57 -2.07947
rtoes 0.654711
lfemur -25.5697 8.22335 -20.3527
ltibia 64.2748
lfoot -18.5916 12.6772
ltoes -19.6613
318
root 1.50309 15.1127 9.32845 -12.7189 -2.409 0.995842
lowerback 7.67877 -0.0632574 2.39125
upperback 3.40089 0.125042 3.17801
thorax -0.792481 0.0615872 1.92265
lowerneck -7.96026 0.909449 -1.28663
upperneck 27.7965 1.97704 -1.63737
head 10.1477 0.6055 -0.139195
rclavicle 9.19379e-015 2.22639e-014
rhumerus -18.6216 -17.2683 -83.025
rradius 23.1645
rwrist 43.6919
rhand -23.8357 -26.1167
rfingers 7.12502
rthumb 2.63607 -56.0802
lclavicle 9.19379e-015 2.22639e-014
lhumerus -22.6742 -3.85598 85.0104
lradius 23.4517
lwrist 17.7999
lhand -23.6109 -8.37154
lfingers 7.12502
lthumb 2.85315 21.5891
rfemur -32.044 1.15418 16.8804
rtibia 64.7636
rfoot -18.1552 -2.06377
rtoes 0.72221
lfemur -26.356 8.0286 -20.3441
ltibia 64.8195
lfoot -18.9431 13.2207
ltoes -19.5836
319
root 1.50706 15.1229 9.41663 -11.9984 -2.48428 0.915553
lowerback 7.12484 -0.119951 2.38358
upperback 3.18561 0.033005 3.20712
thorax -0.706773 0.015476 1.96267
lowerneck -7.94604 0.951217 -1.18832
upperneck 27.6727 2.01497 -1.64803
head 10.1004 0.632753 -0.155972
rclavicle 6.5102e-015 1.59028e-015
rhumerus -18.2334 -15.1545 -83.6798
rradius 24.1649
rwrist 42.39
rhand -23.9951 -26.0181
rfingers 7.12502
rthumb 2.48214 -55.9834
lclavicle 6.5102e-015 1.59028e-015
lhumerus -22.8521 -5.54962 86.0001
lradius 24.3181
lwrist 17.2551
lhand -22.865 -7.89432
lfingers 7.12502
lthumb 3.57349 22.0555
rfemur -32.616 0.988276 16.9469
rtibia 65.0248
rfoot -18.6318 -2.0716
rtoes 0.773191
lfemur -26.8922 7.82884 -20.3866
ltibia 65.0702
lfoot -19.2094 13.6752
ltoes -19.3656
320
root 1.50819 15.1484 9.49824 -11.4528 -2.55579 0.868513
lowerback 6.7581 -0.168219 2.28259
upperback 3.06473 -0.0488431 3.24587
thorax -0.626814 -0.0263437 2.06407
lowerneck -7.91893 0.978622 -1.15485
upperneck 27.3699 2.02889 -1.61733
head 9.98417 0.649161 -0.149719
rclavicle 9.54166e-015 -6.36111e-015
rhumerus -17.9319 -13.4552 -84.1702
rradius 25.313
rwrist 41.1464
rhand -24.2129 -26.0615
rfingers 7.12502
rthumb 2.2717 -56.0291
lclavicle 9.54166e-015 -6.36111e-015
lhumerus -23.0087 -6.7865 86.8725
lradius 25.1733
lwrist 16.0756
lhand -22.5366 -7.64159
lfingers 7.12502
lthumb 3.89064 22.3026
rfemur -32.8573 0.896617 16.9908
rtibia 65.0214
rfoot -19.0114 -2.09018
rtoes 0.82928
lfemur -27.0902 7.62248 -20.4211
ltibia 65.0258
lfoot -19.4014 14.0465
ltoes -19.1066
